<svg width="117" height="115" viewBox="0 0 117 115" fill="none" xmlns="http://www.w3.org/2000/svg">
<circle cx="76.6209" cy="101.645" r="5.95161" stroke="#00DAFF" stroke-width="5"/>
<circle cx="64.9721" cy="52.8911" r="8.10886" stroke="#00DAFF" stroke-width="5"/>
<circle cx="108.548" cy="26.5727" r="5.95161" stroke="#00DAFF" stroke-width="5"/>
<circle cx="34.3382" cy="8.45161" r="5.95161" stroke="#00DAFF" stroke-width="5"/>
<circle cx="8.45161" cy="80.9355" r="5.95161" stroke="#00DAFF" stroke-width="5"/>
<circle cx="37.7907" cy="105.959" r="5.95161" stroke="#00DAFF" stroke-width="5"/>
<circle cx="64.5401" cy="53.3225" r="19.758" stroke="#00DAFF" stroke-width="5"/>
<path d="M64.5404 82.2097C80.9246 82.2097 94.2903 69.1292 94.2903 52.8913C94.2903 36.6533 80.9246 23.5728 64.5404 23.5728C48.1561 23.5728 34.7904 36.6533 34.7904 52.8913C34.7904 69.1292 48.1561 82.2097 64.5404 82.2097Z" stroke="#00DAFF" stroke-width="6"/>
<line x1="90.634" y1="40.9819" x2="105.303" y2="29.7642" stroke="#00DAFF" stroke-width="5"/>
<line x1="15.0619" y1="76.9927" x2="36.5772" y2="65.7749" stroke="#00DAFF" stroke-width="5"/>
<line x1="39.9254" y1="101.283" x2="52.0498" y2="79.7104" stroke="#00DAFF" stroke-width="5"/>
<line x1="75.0852" y1="96.3099" x2="70.7707" y2="81.6406" stroke="#00DAFF" stroke-width="5"/>
<line x1="36.4648" y1="12.313" x2="47.6825" y2="30.434" stroke="#00DAFF" stroke-width="5"/>
</svg>
