<svg width="582" height="206" viewBox="0 0 582 206" fill="none" xmlns="http://www.w3.org/2000/svg">
<path d="M3 103C26.04 -30.3333 45.24 -30.3333 60.6 103C75.96 236.333 95.16 236.333 118.2 103C141.24 -30.3333 160.44 -30.3333 175.8 103C191.16 236.333 210.36 236.333 233.4 103C256.44 -30.3333 275.64 -30.3333 291 103C306.36 236.333 325.56 236.333 348.6 103C371.64 -30.3333 390.84 -30.3333 406.2 103C421.56 236.333 440.76 236.333 463.8 103C486.84 -30.3333 506.04 -30.3333 521.4 103C536.76 236.333 555.96 236.333 579 103" stroke="#4C75F2" stroke-width="6"/>
</svg>
